<svg xmlns="http://www.w3.org/2000/svg" viewBox="0 0 79.666664 105.94667" height="105.947" width="79.667"><defs><clipPath id="a"><path d="M0 794.625V0h597.527v794.625z"/></clipPath></defs><g clip-path="url(#a)" fill="#122657" transform="matrix(.13333 0 0 -.13333 0 105.947)"><path d="M106.699 479.863c-41.152-15.078-86.738 6.043-101.824 47.199-15.09 41.153 6.043 86.731 47.184 101.821L490.84 789.75c41.14 15.09 86.726-6.039 101.816-47.191 15.086-41.141-6.035-86.735-47.187-101.821l-438.77-160.875m0-237.5c-41.152-15.078-86.738 6.055-101.824 47.207-15.09 41.153 6.043 86.731 47.184 101.817L490.84 552.258c41.14 15.086 86.726-6.043 101.816-47.196 15.086-41.136-6.035-86.734-47.187-101.82l-438.77-160.879m0-237.5C65.547-10.215 19.961 10.918 4.875 52.07c-15.09 41.153 6.043 86.739 47.184 101.817L490.84 314.766c41.14 15.078 86.726-6.043 101.816-47.2 15.086-41.14-6.035-86.726-47.187-101.824L106.699 4.863"/></g></svg>