<?xml version="1.0" encoding="UTF-8" standalone="no"?>
<svg
   xmlns:dc="http://purl.org/dc/elements/1.1/"
   xmlns:cc="http://creativecommons.org/ns#"
   xmlns:rdf="http://www.w3.org/1999/02/22-rdf-syntax-ns#"
   xmlns:svg="http://www.w3.org/2000/svg"
   xmlns="http://www.w3.org/2000/svg"
   viewBox="0 0 79.666664 105.94667"
   height="105.94667"
   width="79.666664"
   xml:space="preserve"
   id="svg2"
   version="1.1"><metadata
     id="metadata8"><rdf:RDF><cc:Work
         rdf:about=""><dc:format>image/svg+xml</dc:format><dc:type
           rdf:resource="http://purl.org/dc/dcmitype/StillImage" /></cc:Work></rdf:RDF></metadata><defs
     id="defs6"><clipPath
       id="clipPath20"
       clipPathUnits="userSpaceOnUse"><path
         id="path18"
         d="M 0,794.625 V 0 h 597.527 v 794.625 z" /></clipPath></defs><g
     transform="matrix(1.3333333,0,0,-1.3333333,0,105.94667)"
     id="g10"><g
       transform="scale(0.1)"
       id="g12"><g
         id="g14"><g
           clip-path="url(#clipPath20)"
           id="g16"><path
             id="path22"
             style="fill:#122657;fill-opacity:1;fill-rule:nonzero;stroke:none"
             d="m 106.699,479.863 c -41.1521,-15.078 -86.7381,6.043 -101.824,47.199 -15.0898,41.153 6.043,86.731 47.1836,101.821 L 490.84,789.75 c 41.14,15.09 86.726,-6.039 101.816,-47.191 15.086,-41.141 -6.035,-86.735 -47.187,-101.821 L 106.699,479.863" /><path
             id="path24"
             style="fill:#122657;fill-opacity:1;fill-rule:nonzero;stroke:none"
             d="M 106.699,242.363 C 65.5469,227.285 19.9609,248.418 4.875,289.57 c -15.0898,41.153 6.043,86.731 47.1836,101.817 L 490.84,552.258 c 41.14,15.086 86.726,-6.043 101.816,-47.196 15.086,-41.136 -6.035,-86.734 -47.187,-101.82 L 106.699,242.363" /><path
             id="path26"
             style="fill:#122657;fill-opacity:1;fill-rule:nonzero;stroke:none"
             d="M 106.699,4.86328 C 65.5469,-10.2148 19.9609,10.918 4.875,52.0703 -10.2148,93.2227 10.918,138.809 52.0586,153.887 L 490.84,314.766 c 41.14,15.078 86.726,-6.043 101.816,-47.2 15.086,-41.14 -6.035,-86.726 -47.187,-101.824 L 106.699,4.86328" /></g></g></g></g></svg>